%TF.GenerationSoftware,KiCad,Pcbnew,8.0.6*%
%TF.CreationDate,2025-03-15T16:55:39+05:30*%
%TF.ProjectId,8051_DEVboard,38303531-5f44-4455-9662-6f6172642e6b,rev?*%
%TF.SameCoordinates,Original*%
%TF.FileFunction,Soldermask,Top*%
%TF.FilePolarity,Negative*%
%FSLAX46Y46*%
G04 Gerber Fmt 4.6, Leading zero omitted, Abs format (unit mm)*
G04 Created by KiCad (PCBNEW 8.0.6) date 2025-03-15 16:55:39*
%MOMM*%
%LPD*%
G01*
G04 APERTURE LIST*
G04 Aperture macros list*
%AMRoundRect*
0 Rectangle with rounded corners*
0 $1 Rounding radius*
0 $2 $3 $4 $5 $6 $7 $8 $9 X,Y pos of 4 corners*
0 Add a 4 corners polygon primitive as box body*
4,1,4,$2,$3,$4,$5,$6,$7,$8,$9,$2,$3,0*
0 Add four circle primitives for the rounded corners*
1,1,$1+$1,$2,$3*
1,1,$1+$1,$4,$5*
1,1,$1+$1,$6,$7*
1,1,$1+$1,$8,$9*
0 Add four rect primitives between the rounded corners*
20,1,$1+$1,$2,$3,$4,$5,0*
20,1,$1+$1,$4,$5,$6,$7,0*
20,1,$1+$1,$6,$7,$8,$9,0*
20,1,$1+$1,$8,$9,$2,$3,0*%
G04 Aperture macros list end*
%ADD10R,1.800000X1.800000*%
%ADD11C,1.800000*%
%ADD12R,1.600000X1.600000*%
%ADD13O,1.600000X1.600000*%
%ADD14C,1.600000*%
%ADD15RoundRect,0.102000X-0.654000X0.654000X-0.654000X-0.654000X0.654000X-0.654000X0.654000X0.654000X0*%
%ADD16C,1.512000*%
%ADD17R,1.700000X1.700000*%
%ADD18O,1.700000X1.700000*%
%ADD19R,1.295400X1.295400*%
%ADD20C,1.295400*%
%ADD21C,2.000000*%
%ADD22RoundRect,0.102000X-0.838200X-0.838200X0.838200X-0.838200X0.838200X0.838200X-0.838200X0.838200X0*%
%ADD23C,1.880400*%
%ADD24R,1.524000X1.524000*%
%ADD25C,1.524000*%
%ADD26C,1.500000*%
%ADD27RoundRect,0.102000X-0.825000X0.825000X-0.825000X-0.825000X0.825000X-0.825000X0.825000X0.825000X0*%
%ADD28C,1.854000*%
G04 APERTURE END LIST*
D10*
%TO.C,D1*%
X225175000Y-139850000D03*
D11*
X222635000Y-139850000D03*
%TD*%
D12*
%TO.C,RN1*%
X212255000Y-146850000D03*
D13*
X209715000Y-146850000D03*
X207175000Y-146850000D03*
X204635000Y-146850000D03*
X202095000Y-146850000D03*
X199555000Y-146850000D03*
X197015000Y-146850000D03*
X194475000Y-146850000D03*
X191935000Y-146850000D03*
%TD*%
D14*
%TO.C,270ohm2*%
X159280000Y-99090000D03*
D13*
X149120000Y-99090000D03*
%TD*%
D14*
%TO.C,270ohm1*%
X196110000Y-60120000D03*
D13*
X196110000Y-70280000D03*
%TD*%
D15*
%TO.C,S3*%
X117205000Y-128790000D03*
D16*
X117205000Y-130790000D03*
X117205000Y-132790000D03*
X112205000Y-128790000D03*
X112205000Y-130790000D03*
X112205000Y-132790000D03*
%TD*%
D10*
%TO.C,D17*%
X132925000Y-139370000D03*
D11*
X130385000Y-139370000D03*
%TD*%
D14*
%TO.C,270ohm*%
X151795000Y-147940000D03*
D13*
X161955000Y-147940000D03*
%TD*%
D17*
%TO.C,J6*%
X110870000Y-113080000D03*
D18*
X110870000Y-115620000D03*
%TD*%
D15*
%TO.C,S6*%
X143645000Y-128840000D03*
D16*
X143645000Y-130840000D03*
X143645000Y-132840000D03*
X138645000Y-128840000D03*
X138645000Y-130840000D03*
X138645000Y-132840000D03*
%TD*%
D19*
%TO.C,U3*%
X146420000Y-115200000D03*
D20*
X143880000Y-115200000D03*
X141340000Y-115200000D03*
X138800000Y-115200000D03*
X136260000Y-115200000D03*
X133720000Y-115200000D03*
X131180000Y-115200000D03*
X128640000Y-115200000D03*
X126100000Y-115200000D03*
X123560000Y-115200000D03*
X123560000Y-122820000D03*
X126100000Y-122820000D03*
X128640000Y-122820000D03*
X131180000Y-122820000D03*
X133720000Y-122820000D03*
X136260000Y-122820000D03*
X138800000Y-122820000D03*
X141340000Y-122820000D03*
X143880000Y-122820000D03*
X146420000Y-122820000D03*
%TD*%
D15*
%TO.C,S4*%
X125915000Y-128740000D03*
D16*
X125915000Y-130740000D03*
X125915000Y-132740000D03*
X120915000Y-128740000D03*
X120915000Y-130740000D03*
X120915000Y-132740000D03*
%TD*%
D21*
%TO.C,SW1*%
X106400000Y-53300000D03*
X106400000Y-46800000D03*
X110900000Y-53300000D03*
X110900000Y-46800000D03*
%TD*%
D10*
%TO.C,D8*%
X172675000Y-139850000D03*
D11*
X170135000Y-139850000D03*
%TD*%
D10*
%TO.C,D4*%
X202675000Y-139850000D03*
D11*
X200135000Y-139850000D03*
%TD*%
D15*
%TO.C,S7*%
X152715000Y-128870000D03*
D16*
X152715000Y-130870000D03*
X152715000Y-132870000D03*
X147715000Y-128870000D03*
X147715000Y-130870000D03*
X147715000Y-132870000D03*
%TD*%
D14*
%TO.C,270ohm9*%
X132845000Y-147940000D03*
D13*
X143005000Y-147940000D03*
%TD*%
D15*
%TO.C,S8*%
X161612500Y-128840000D03*
D16*
X161612500Y-130840000D03*
X161612500Y-132840000D03*
X156612500Y-128840000D03*
X156612500Y-130840000D03*
X156612500Y-132840000D03*
%TD*%
D14*
%TO.C,10k1*%
X127670000Y-91150000D03*
D13*
X127670000Y-101310000D03*
%TD*%
D15*
%TO.C,S5*%
X134895000Y-128790000D03*
D16*
X134895000Y-130790000D03*
X134895000Y-132790000D03*
X129895000Y-128790000D03*
X129895000Y-130790000D03*
X129895000Y-132790000D03*
%TD*%
D10*
%TO.C,D6*%
X187675000Y-139850000D03*
D11*
X185135000Y-139850000D03*
%TD*%
D10*
%TO.C,D11*%
X106555000Y-139360000D03*
D11*
X104015000Y-139360000D03*
%TD*%
D17*
%TO.C,J3*%
X138520000Y-65350000D03*
D18*
X141060000Y-65350000D03*
%TD*%
D12*
%TO.C,1uF1*%
X122950000Y-94600000D03*
D14*
X122950000Y-97100000D03*
%TD*%
D17*
%TO.C,OUTPUT_LED1*%
X208715000Y-118850000D03*
D18*
X206175000Y-118850000D03*
X203635000Y-118850000D03*
X201095000Y-118850000D03*
X198555000Y-118850000D03*
X196015000Y-118850000D03*
X193475000Y-118850000D03*
X190935000Y-118850000D03*
%TD*%
D17*
%TO.C,RS_R/W_EN1*%
X188140000Y-99770000D03*
D18*
X188140000Y-97230000D03*
X188140000Y-94690000D03*
%TD*%
D22*
%TO.C,U1*%
X146660000Y-46670000D03*
D23*
X146660000Y-49210000D03*
X146660000Y-51750000D03*
X146660000Y-54290000D03*
X146660000Y-56830000D03*
X146660000Y-59370000D03*
X146660000Y-61910000D03*
X146660000Y-64450000D03*
X146660000Y-66990000D03*
X146660000Y-69530000D03*
X146660000Y-72070000D03*
X146660000Y-74610000D03*
X146660000Y-77150000D03*
X146660000Y-79690000D03*
X146660000Y-82230000D03*
X146660000Y-84770000D03*
X146660000Y-87310000D03*
X146660000Y-89850000D03*
X146660000Y-92390000D03*
X146660000Y-94930000D03*
X161900000Y-94930000D03*
X161900000Y-92390000D03*
X161900000Y-89850000D03*
X161900000Y-87310000D03*
X161900000Y-84770000D03*
X161900000Y-82230000D03*
X161900000Y-79690000D03*
X161900000Y-77150000D03*
X161900000Y-74610000D03*
X161900000Y-72070000D03*
X161900000Y-69530000D03*
X161900000Y-66990000D03*
X161900000Y-64450000D03*
X161900000Y-61910000D03*
X161900000Y-59370000D03*
X161900000Y-56830000D03*
X161900000Y-54290000D03*
X161900000Y-51750000D03*
X161900000Y-49210000D03*
X161900000Y-46670000D03*
%TD*%
D14*
%TO.C,270ohm4*%
X98690000Y-148000000D03*
D13*
X108850000Y-148000000D03*
%TD*%
D15*
%TO.C,S1*%
X98962500Y-128790000D03*
D16*
X98962500Y-130790000D03*
X98962500Y-132790000D03*
X93962500Y-128790000D03*
X93962500Y-130790000D03*
X93962500Y-132790000D03*
%TD*%
D14*
%TO.C,270ohm5*%
X108915000Y-144490000D03*
D13*
X119075000Y-144490000D03*
%TD*%
D17*
%TO.C,J1*%
X158970000Y-42100000D03*
D18*
X161510000Y-42100000D03*
X164050000Y-42100000D03*
%TD*%
D10*
%TO.C,D16*%
X142185000Y-139370000D03*
D11*
X139645000Y-139370000D03*
%TD*%
D10*
%TO.C,D13*%
X150700000Y-139400000D03*
D11*
X148160000Y-139400000D03*
%TD*%
D24*
%TO.C,U2*%
X208955000Y-124350000D03*
D25*
X206415000Y-124350000D03*
X203875000Y-124350000D03*
X201335000Y-124350000D03*
X198795000Y-124350000D03*
X196255000Y-124350000D03*
X193715000Y-124350000D03*
X191175000Y-124350000D03*
X188635000Y-124350000D03*
X188635000Y-131970000D03*
X191175000Y-131970000D03*
X193715000Y-131970000D03*
X196255000Y-131970000D03*
X198795000Y-131970000D03*
X201335000Y-131970000D03*
X203875000Y-131970000D03*
X206415000Y-131970000D03*
X208955000Y-131970000D03*
%TD*%
D10*
%TO.C,D2*%
X217675000Y-139850000D03*
D11*
X215135000Y-139850000D03*
%TD*%
D17*
%TO.C,J9*%
X177430000Y-39630000D03*
D18*
X179970000Y-39630000D03*
X182510000Y-39630000D03*
X185050000Y-39630000D03*
X187590000Y-39630000D03*
%TD*%
D17*
%TO.C,GND_JMP1*%
X202750000Y-50800000D03*
D18*
X200210000Y-50800000D03*
%TD*%
D10*
%TO.C,D9*%
X134735000Y-40080000D03*
D11*
X132195000Y-40080000D03*
%TD*%
D10*
%TO.C,D14*%
X124675000Y-139280000D03*
D11*
X122135000Y-139280000D03*
%TD*%
D17*
%TO.C,Port_2*%
X171100000Y-95730000D03*
D18*
X171100000Y-93190000D03*
X171100000Y-90650000D03*
X171100000Y-88110000D03*
X171100000Y-85570000D03*
X171100000Y-83030000D03*
X171100000Y-80490000D03*
X171100000Y-77950000D03*
%TD*%
D10*
%TO.C,D5*%
X195175000Y-139850000D03*
D11*
X192635000Y-139850000D03*
%TD*%
D26*
%TO.C,Y1*%
X133670000Y-91030000D03*
X137470000Y-91030000D03*
%TD*%
D10*
%TO.C,D7*%
X180175000Y-139850000D03*
D11*
X177635000Y-139850000D03*
%TD*%
D17*
%TO.C,OUTPUT_LED2*%
X126410000Y-109270000D03*
D18*
X128950000Y-109270000D03*
X131490000Y-109270000D03*
X134030000Y-109270000D03*
X136570000Y-109270000D03*
X139110000Y-109270000D03*
X141650000Y-109270000D03*
X144190000Y-109270000D03*
%TD*%
D14*
%TO.C,270ohm3*%
X102945000Y-144820000D03*
D13*
X92785000Y-144820000D03*
%TD*%
D15*
%TO.C,S2*%
X108202500Y-128750000D03*
D16*
X108202500Y-130750000D03*
X108202500Y-132750000D03*
X103202500Y-128750000D03*
X103202500Y-130750000D03*
X103202500Y-132750000D03*
%TD*%
D17*
%TO.C,J2*%
X101990000Y-87000000D03*
D18*
X99450000Y-87000000D03*
X96910000Y-87000000D03*
X94370000Y-87000000D03*
%TD*%
D24*
%TO.C,U4*%
X96860000Y-92060000D03*
D25*
X96860000Y-94600000D03*
X96860000Y-97140000D03*
X96860000Y-99680000D03*
X96860000Y-102220000D03*
X96860000Y-104760000D03*
X96860000Y-107300000D03*
X96860000Y-109840000D03*
X96860000Y-112380000D03*
X96860000Y-114920000D03*
X104480000Y-114920000D03*
X104480000Y-112380000D03*
X104480000Y-109840000D03*
X104480000Y-107300000D03*
X104480000Y-104760000D03*
X104480000Y-102220000D03*
X104480000Y-99680000D03*
X104480000Y-97140000D03*
X104480000Y-94600000D03*
X104480000Y-92060000D03*
%TD*%
D14*
%TO.C,270ohm10*%
X126395000Y-144650000D03*
D13*
X136555000Y-144650000D03*
%TD*%
D17*
%TO.C,Port_1*%
X133020000Y-45470000D03*
D18*
X133020000Y-48010000D03*
X133020000Y-50550000D03*
X133020000Y-53090000D03*
X133020000Y-55630000D03*
X133020000Y-58170000D03*
X133020000Y-60710000D03*
X133020000Y-63250000D03*
%TD*%
D27*
%TO.C,PBT_CONNECTOR1*%
X212900000Y-45670000D03*
D28*
X212900000Y-50750000D03*
%TD*%
D14*
%TO.C,270ohm8*%
X144715000Y-144530000D03*
D13*
X154875000Y-144530000D03*
%TD*%
D14*
%TO.C,C1*%
X137670000Y-100530000D03*
X132670000Y-100530000D03*
%TD*%
D10*
%TO.C,D3*%
X210175000Y-139850000D03*
D11*
X207635000Y-139850000D03*
%TD*%
D10*
%TO.C,D10*%
X96625000Y-139470000D03*
D11*
X94085000Y-139470000D03*
%TD*%
D14*
%TO.C,270ohm6*%
X115710000Y-148040000D03*
D13*
X125870000Y-148040000D03*
%TD*%
D17*
%TO.C,J5*%
X171100000Y-68450000D03*
D18*
X171100000Y-70990000D03*
X171100000Y-73530000D03*
%TD*%
D17*
%TO.C,J4*%
X200100000Y-105900000D03*
D18*
X200100000Y-103360000D03*
X200100000Y-100820000D03*
X200100000Y-98280000D03*
X200100000Y-95740000D03*
X200100000Y-93200000D03*
X200100000Y-90660000D03*
X200100000Y-88120000D03*
X200100000Y-85580000D03*
X200100000Y-83040000D03*
X200100000Y-80500000D03*
X200100000Y-77960000D03*
X200100000Y-75420000D03*
X200100000Y-72880000D03*
X200100000Y-70340000D03*
X200100000Y-67800000D03*
%TD*%
D14*
%TO.C,10K2*%
X89870000Y-92930000D03*
D13*
X89870000Y-103090000D03*
%TD*%
D14*
%TO.C,C2*%
X137670000Y-96530000D03*
X132670000Y-96530000D03*
%TD*%
D17*
%TO.C,LCD_DATA1*%
X188200000Y-90740000D03*
D18*
X188200000Y-88200000D03*
X188200000Y-85660000D03*
X188200000Y-83120000D03*
X188200000Y-80580000D03*
X188200000Y-78040000D03*
X188200000Y-75500000D03*
X188200000Y-72960000D03*
%TD*%
D17*
%TO.C,J8*%
X199620000Y-39320000D03*
D18*
X202160000Y-39320000D03*
X204700000Y-39320000D03*
X207240000Y-39320000D03*
X209780000Y-39320000D03*
%TD*%
D10*
%TO.C,D12*%
X115595000Y-139290000D03*
D11*
X113055000Y-139290000D03*
%TD*%
D17*
%TO.C,Port_3*%
X133250000Y-69020000D03*
D18*
X133250000Y-71560000D03*
X133250000Y-74100000D03*
X133250000Y-76640000D03*
X133250000Y-79180000D03*
X133250000Y-81720000D03*
X133250000Y-84260000D03*
X133250000Y-86800000D03*
%TD*%
D14*
%TO.C,C3*%
X89870000Y-105770000D03*
X89870000Y-110770000D03*
%TD*%
D10*
%TO.C,D15*%
X160285000Y-139440000D03*
D11*
X157745000Y-139440000D03*
%TD*%
D17*
%TO.C,Programming_Pins1*%
X103510000Y-62210000D03*
D18*
X103510000Y-64750000D03*
X103510000Y-67290000D03*
X103510000Y-69830000D03*
X103510000Y-72370000D03*
X103510000Y-74910000D03*
%TD*%
D17*
%TO.C,ADC_DATA1*%
X110870000Y-109150000D03*
D18*
X110870000Y-106610000D03*
X110870000Y-104070000D03*
X110870000Y-101530000D03*
X110870000Y-98990000D03*
X110870000Y-96450000D03*
X110870000Y-93910000D03*
X110870000Y-91370000D03*
%TD*%
D17*
%TO.C,Port_0*%
X171100000Y-46710000D03*
D18*
X171100000Y-49250000D03*
X171100000Y-51790000D03*
X171100000Y-54330000D03*
X171100000Y-56870000D03*
X171100000Y-59410000D03*
X171100000Y-61950000D03*
X171100000Y-64490000D03*
%TD*%
M02*
